<svg xmlns="http://www.w3.org/2000/svg" id="Layer_1" data-name="Layer 1" viewBox="0 0 255.96 73.1"><defs><style>.cls-1{fill:#2869b0;}.cls-2{fill:#fff;}</style></defs><path class="cls-1" d="M250,20.05c-4.85-5.5-11.73-8.29-20.46-8.29C222,11.76,215.8,14,211,18.44q-.44-.56-.93-1.08c-2.43-2.56-6.82-5.6-13.93-5.6a23.82,23.82,0,0,0-5.91.7H151.74a23.91,23.91,0,0,0-6-.7,21.43,21.43,0,0,0-9.95,2.33V12.46h-24a23.8,23.8,0,0,0-6-.7,20.43,20.43,0,0,0-15.45,6.55l-.06.07c-4.72-4.39-11-6.62-18.82-6.62a27.64,27.64,0,0,0-15,4A26.19,26.19,0,0,0,47.76,4.83C43.22,1.63,37.29,0,30.14,0c-9.21,0-16.62,2.77-22,8.23S0,21.17,0,30.53c0,6.9,1.52,12.82,4.52,17.59a26.47,26.47,0,0,0,11.3,10.34,35.43,35.43,0,0,0,14.93,2.8,31.44,31.44,0,0,0,12.94-2.4,24.32,24.32,0,0,0,7.92-5.67A25.15,25.15,0,0,0,54,55.49c4.63,3.81,10.52,5.74,17.5,5.74A28.7,28.7,0,0,0,85.8,57.82a17.33,17.33,0,0,0,6.36,10.54c4,3.2,9.75,4.69,18.16,4.69a41,41,0,0,0,9.15-1,21.32,21.32,0,0,0,8.62-4A18.2,18.2,0,0,0,130,66.37a19.1,19.1,0,0,0,2.12,2c4,3.2,9.75,4.69,18.16,4.69a40.83,40.83,0,0,0,9.15-1,21.42,21.42,0,0,0,8.63-4,20.28,20.28,0,0,0,5.72-7.34,2.14,2.14,0,0,1,.1-.22h41.37V57.68a28.06,28.06,0,0,0,14.34,3.55c7.84,0,14.24-2.34,19-7A24.13,24.13,0,0,0,256,36.41,24,24,0,0,0,250,20.05Z"></path><path class="cls-2" d="M38.5,34.49,50,38a21.44,21.44,0,0,1-3.66,8.1,15.93,15.93,0,0,1-6.2,4.9,23.08,23.08,0,0,1-9.42,1.66,27.25,27.25,0,0,1-11.34-2,18,18,0,0,1-7.59-7.09q-3.19-5.09-3.2-13,0-10.56,5.62-16.24t15.9-5.67q8,0,12.64,3.25t6.84,10L38,24.45a10.18,10.18,0,0,0-1.28-2.85A7.58,7.58,0,0,0,34,19.28a7.82,7.82,0,0,0-3.57-.82,7.71,7.71,0,0,0-6.85,3.6q-1.82,2.67-1.81,8.38,0,7.08,2.15,9.7a7.39,7.39,0,0,0,6,2.63,7.35,7.35,0,0,0,5.71-2.12A13.23,13.23,0,0,0,38.5,34.49Z"></path><path class="cls-2" d="M53.88,36.58A15.45,15.45,0,0,1,58.64,25c3.18-3,7.46-4.57,12.87-4.57q9.26,0,14,5.37a15.61,15.61,0,0,1,3.8,10.66,15.43,15.43,0,0,1-4.72,11.65q-4.71,4.56-13,4.55-7.43,0-12-3.77A15.19,15.19,0,0,1,53.88,36.58Zm11.85,0c0,2.75.55,4.78,1.67,6.1a5.48,5.48,0,0,0,8.39,0q1.63-1.95,1.64-6.24,0-4-1.66-6a5.12,5.12,0,0,0-4.09-2,5.34,5.34,0,0,0-4.27,2C66.29,31.83,65.73,33.84,65.73,36.55Z"></path><path class="cls-2" d="M116.15,21.08h11.07V50.2l0,1.36A12.87,12.87,0,0,1,126,57.09a11.67,11.67,0,0,1-3.28,4.26,12.93,12.93,0,0,1-5.2,2.35,32.51,32.51,0,0,1-7.21.72q-9.3,0-12.76-2.78a9.07,9.07,0,0,1-3.47-7.46c0-.39,0-.91,0-1.57l11.47,1.31a3.7,3.7,0,0,0,1.34,2.2,5.64,5.64,0,0,0,3.28.9,5,5,0,0,0,3.82-1.36q1.26-1.36,1.26-4.76V46.22a12.2,12.2,0,0,1-3.48,3,12.36,12.36,0,0,1-5.9,1.45,11.7,11.7,0,0,1-10-5.4q-2.7-3.82-2.7-10.13,0-7.2,3.49-11a11.81,11.81,0,0,1,9.11-3.78,12.81,12.81,0,0,1,5.94,1.22,12.83,12.83,0,0,1,4.37,4ZM105,36A7.3,7.3,0,0,0,106.46,41a5,5,0,0,0,7.44-.06,7.32,7.32,0,0,0,1.5-5,7.56,7.56,0,0,0-1.57-5.16A4.91,4.91,0,0,0,110,29a4.43,4.43,0,0,0-3.62,1.64C105.48,31.68,105,33.5,105,36Z"></path><path class="cls-2" d="M156.1,21.08h11.06V50.2l0,1.36A12.73,12.73,0,0,1,166,57.09a11.56,11.56,0,0,1-3.28,4.26,12.82,12.82,0,0,1-5.19,2.35,32.6,32.6,0,0,1-7.22.72q-9.28,0-12.76-2.78A9.1,9.1,0,0,1,134,54.18c0-.39,0-.91.06-1.57l11.47,1.31a3.7,3.7,0,0,0,1.33,2.2,5.66,5.66,0,0,0,3.28.9A5,5,0,0,0,154,55.66q1.26-1.36,1.26-4.76V46.22a11.48,11.48,0,0,1-9.37,4.44,11.68,11.68,0,0,1-10-5.4q-2.7-3.82-2.7-10.13,0-7.2,3.48-11a11.83,11.83,0,0,1,9.12-3.78,12.83,12.83,0,0,1,5.94,1.22,13,13,0,0,1,4.37,4ZM145,36A7.3,7.3,0,0,0,146.4,41a5.05,5.05,0,0,0,7.45-.06,7.37,7.37,0,0,0,1.49-5,7.56,7.56,0,0,0-1.57-5.16A4.89,4.89,0,0,0,149.94,29a4.41,4.41,0,0,0-3.61,1.64C145.43,31.68,145,33.5,145,36Z"></path><path class="cls-2" d="M174,21.08h11v5a16.38,16.38,0,0,1,5-4.4,13.19,13.19,0,0,1,6.16-1.32,10.08,10.08,0,0,1,7.68,2.92c1.85,1.94,2.77,4.95,2.77,9v19.6H194.73V35c0-1.94-.35-3.31-1.07-4.11a3.85,3.85,0,0,0-3-1.21,4.28,4.28,0,0,0-3.48,1.63q-1.33,1.62-1.34,5.84v14.8H174Z"></path><path class="cls-2" d="M211.92,36.58A15.42,15.42,0,0,1,216.68,25q4.75-4.56,12.86-4.57,9.27,0,14,5.37a15.61,15.61,0,0,1,3.8,10.66,15.47,15.47,0,0,1-4.72,11.65c-3.14,3-7.5,4.55-13.05,4.55q-7.44,0-12-3.77A15.16,15.16,0,0,1,211.92,36.58Zm11.84,0q0,4.13,1.67,6.1a5.48,5.48,0,0,0,8.39,0c1.1-1.3,1.64-3.38,1.64-6.24q0-4-1.65-6a5.14,5.14,0,0,0-4.1-2,5.32,5.32,0,0,0-4.26,2C224.32,31.83,223.76,33.84,223.76,36.55Z"></path></svg>